<?xml version="1.0" encoding="UTF-8"?>
<!DOCTYPE svg PUBLIC "-//W3C//DTD SVG 1.1//EN" "http://www.w3.org/Graphics/SVG/1.1/DTD/svg11.dtd">
<!-- Creator: CorelDRAW 2020 (64-Bit) -->
<svg xmlns="http://www.w3.org/2000/svg" xml:space="preserve" width="161.231mm" height="161.231mm" version="1.1" style="shape-rendering:geometricPrecision; text-rendering:geometricPrecision; image-rendering:optimizeQuality; fill-rule:evenodd; clip-rule:evenodd"
viewBox="0 0 16108.87 16108.87"
 xmlns:xlink="http://www.w3.org/1999/xlink"
 xmlns:xodm="http://www.corel.com/coreldraw/odm/2003">
 <defs>
  <style type="text/css">
   <![CDATA[
    .str5 {stroke:#373435;stroke-width:99.91;stroke-miterlimit:22.9256}
    .str0 {stroke:#373435;stroke-width:49.96;stroke-miterlimit:22.9256}
    .str2 {stroke:#373435;stroke-width:70.5;stroke-miterlimit:22.9256}
    .str3 {stroke:#373435;stroke-width:52.87;stroke-miterlimit:22.9256}
    .str4 {stroke:#373435;stroke-width:35.25;stroke-miterlimit:22.9256}
    .str1 {stroke:#373435;stroke-width:19.98;stroke-miterlimit:22.9256}
    .fil0 {fill:none}
    .fil2 {fill:#FEFEFE}
    .fil4 {fill:#E6E7E8}
    .fil5 {fill:#BDBFC1}
    .fil3 {fill:#373435}
    .fil1 {fill:#373435}
    .fil6 {fill:#373435;fill-rule:nonzero}
   ]]>
  </style>
 </defs>
 <g id="Layer_x0020_1">
  <metadata id="CorelCorpID_0Corel-Layer"/>
  <g id="_1923421405872">
   <g>
    <g>
     <polygon class="fil0 str0" points="12844.77,10761.35 11481.47,10719.05 11380.89,5590.39 11306.63,5588.09 11803.73,5048.71 12314.54,5342.4 12634.51,5696.65 12634.51,5742.37 12593.36,5712.66 12680.21,7314.8 "/>
     <line class="fil0 str1" x1="12506.27" y1="10750.85" x2="12314.54" y2= "5342.4" />
     <line class="fil0 str1" x1="11468.9" y1="6258.9" x2="11578.4" y2= "10722.07" />
     <line class="fil0 str0" x1="11927.92" y1="5120.14" x2="11927.92" y2= "4769.47" />
     <line class="fil0 str0" x1="11788.84" y1="4934.03" x2="12067.18" y2= "4859.45" />
     <polygon class="fil1" points="12314.54,5342.4 12506.27,10750.85 12844.77,10761.35 12680.21,7314.8 12593.36,5712.66 12634.51,5742.37 12634.51,5696.65 "/>
     <polygon class="fil2" points="12458.49,5593.83 12412.77,5580.11 12447.06,6188.06 12490.48,6192.63 "/>
     <polygon class="fil2" points="12529.34,5653.25 12483.63,5639.53 12517.91,6247.47 12561.34,6252.05 "/>
     <line class="fil0 str1" x1="11468.9" y1="6258.9" x2="11394.03" y2= "6258.9" />
     <polygon class="fil3" points="11468.9,6258.9 11394,6258.9 11481.47,10719.05 11578.4,10722.07 "/>
     <polygon class="fil3" points="11306.63,5588.09 11380.89,5590.39 11783.1,5176.75 11874.52,5137.9 12308.76,5424.72 12304.91,5336.88 11803.73,5048.71 "/>
     <polygon class="fil4" points="11394,6242.9 11731.6,6210.71 11722.45,5781.04 11985.39,5528.44 12308.76,5424.72 11874.52,5121.89 11828.81,5141.33 11380.89,5574.39 "/>
     <polygon class="fil5" points="11792.27,5872.96 11780.28,5776.06 12028.23,5749.41 12013.66,5538.05 12127.01,5528.88 12141.38,5737.27 12315.96,5718.03 12321.63,5814.93 12148.1,5834.71 12169.38,6143.53 12056.03,6152.72 12034.95,5846.88 "/>
     <polygon class="fil3" points="11926.45,6176.46 11837.95,6200.37 11805.56,5581.04 11382.55,5675.14 11380.89,5590.39 11800.5,5484.28 11783.09,5151.43 11871.68,5112.35 11889.69,5473.5 12276.77,5377.87 12357.98,5467.28 11894.37,5563.01 "/>
     <line class="fil0 str2" x1="11394" y1="6258.9" x2="12341.9" y2= "6114.48" />
     <rect class="fil3" transform="matrix(0.69166 -0.162271 -0 0.69166 11827.5 6564.99)" width="241.22" height="456.01"/>
     <rect class="fil3" transform="matrix(0.69166 -0.162271 -0 0.69166 11861.8 7312.35)" width="241.22" height="456.01"/>
     <rect class="fil3" transform="matrix(0.69166 -0.162271 -0 0.69166 11902.9 8146.84)" width="241.22" height="456.01"/>
     <rect class="fil3" transform="matrix(0.69166 -0.162271 -0 0.69166 11921.2 9385.59)" width="241.22" height="456.01"/>
     <polygon class="fil3" points="11921,10249.56 12117.78,10222.94 12121.22,10610.33 11914.38,10603.76 "/>
    </g>
    <polyline class="fil0 str3" points="3318.95,10851.49 3264.1,10403.53 3638.93,7450.67 3565.79,7304.39 4260.58,5731.97 10294.31,8209.45 11043.95,8712.26 11025.66,8821.97 10989.11,8975.1 11011.94,9055.1 11103.36,9068.81 11103.36,10787.51 10335.44,10760.08 10111.46,10403.55 9878.33,10389.83 9878.33,9608.19 10358.29,9324.78 8821.01,8346.91 "/>
    <polyline class="fil0 str3" points="8821.01,8346.91 7053.45,9105.39 6843.18,9562.48 7099.16,9617.33 7099.16,11116.63 3318.95,10851.49 "/>
    <polyline class="fil0 str3" points="3264.1,10403.53 5583.97,10366.91 7099.16,10536.1 "/>
    <polygon class="fil1" points="4260.58,5731.97 5954.97,6731.39 5991.55,6886.8 7271.43,7334.76 9538.64,8559.79 10845.95,8971.19 10960.24,9014.62 10932.81,8895.77 10331.72,8431.81 10834.29,8571.64 10294.31,8209.45 4260.58,5731.97 5954.97,6731.39 "/>
    <polyline class="fil0 str1" points="7007.89,9597.78 7153.72,9238.65 8781,8511.85 10227.93,9401.75 "/>
    <polygon class="fil3" points="7007.89,9597.78 7153.72,9238.65 8781,8511.85 10227.93,9401.75 10358.29,9324.78 8821.01,8346.91 7053.45,9105.39 6843.18,9562.48 "/>
    <line class="fil0 str3" x1="5830.45" y1="6852.57" x2="5539.06" y2= "11007.2" />
    <polyline class="fil0 str4" points="3638.93,7450.67 4299.19,5901.81 5832.85,6841.02 5822.94,6959.79 7242.92,7469.68 9533,8690.14 10922.59,9128.97 "/>
    <path class="fil1" d="M6896.77 8759.87l-324.55 -70.85 50.29 -541.67c115.71,-140.87 215.84,-109.13 301.68,41.14l-27.42 571.37z"/>
    <path class="fil3" d="M10820.86 9994.11l-212.44 6.79 13.71 -733.65c115.71,-140.88 131.27,-79.43 217.12,70.85l-18.38 656.01z"/>
    <path class="fil3" d="M10420.89 9898.13l-212.44 6.78 13.71 -733.65c115.71,-140.88 131.27,-79.43 217.12,70.85l-18.38 656.02z"/>
    <rect class="fil3" x="8908.19" y="9633" width="525.67" height="772.5"/>
    <rect class="fil3" x="7619.17" y="9614.72" width="525.67" height="772.5"/>
    <rect class="fil3" x="8359.67" y="9619.29" width="342.83" height="456.78"/>
    <polygon class="fil3" points="7456.5,9154.44 7255.36,9250.43 7241.66,10301.76 7392.49,10301.76 7392.49,9328.14 "/>
    <line class="fil0 str1" x1="10960.24" y1="9014.62" x2="10944.52" y2= "10781.84" />
    <polygon class="fil3" points="10960.24,9014.62 10944.52,10781.83 11103.36,10787.51 11103.36,9068.81 11011.94,9055.1 10989.11,8975.1 11025.66,8821.97 11043.95,8712.26 10834.29,8571.64 10331.72,8431.81 10932.81,8895.77 "/>
    <polyline class="fil0 str3" points="9994.89,10396.69 10240.23,10809.16 10381.08,10890.48 10715.62,11330.26 "/>
    <line class="fil0 str1" x1="7598.2" y1="11266.27" x2="10668.61" y2= "11266.27" />
    <line class="fil0 str1" x1="7598.2" y1="11206.84" x2="10639.73" y2= "11206.84" />
    <line class="fil0 str1" x1="7598.2" y1="11147.42" x2="10576.53" y2= "11147.42" />
    <line class="fil0 str1" x1="7573.52" y1="11087.99" x2="10531.33" y2= "11087.99" />
    <line class="fil0 str1" x1="7565" y1="11028.58" x2="10486.13" y2= "11028.58" />
    <line class="fil0 str1" x1="7553.48" y1="10969.15" x2="10440.92" y2= "10969.15" />
    <line class="fil0 str1" x1="7544.42" y1="10909.72" x2="10395.72" y2= "10909.72" />
    <line class="fil0 str1" x1="7538.99" y1="10850.3" x2="10311.48" y2= "10850.3" />
    <line class="fil0 str1" x1="7535.08" y1="10790.88" x2="10229.36" y2= "10790.88" />
    <line class="fil0 str1" x1="7530.43" y1="10731.46" x2="10194.01" y2= "10731.46" />
    <line class="fil0 str1" x1="7526.15" y1="10672.03" x2="10158.67" y2= "10672.03" />
    <line class="fil0 str1" x1="7538.77" y1="10612.61" x2="10123.33" y2= "10612.61" />
    <line class="fil0 str1" x1="7538.77" y1="10553.19" x2="10087.98" y2= "10553.19" />
    <line class="fil0 str1" x1="7491.86" y1="10493.76" x2="10058.9" y2= "10493.76" />
    <line class="fil0 str1" x1="7462.26" y1="10434.34" x2="10017.28" y2= "10434.34" />
    <polyline class="fil0 str3" points="7392.49,10301.76 7515.92,10539.47 7542.5,10895.04 7611.93,11339.41 "/>
    <line class="fil0 str1" x1="7611.93" y1="11339.41" x2="7099.16" y2= "11116.63" />
   </g>
   <circle class="fil0 str5" cx="8054.44" cy="8054.44" r="6058.9"/>
   <circle class="fil0 str5" cx="8054.44" cy="8054.44" r="8004.48"/>
   <path class="fil6" d="M5675.57 13885.92l-72.7 198.83 489.04 178.8 -769.25 587.61 -64.49 176.36 729.54 266.73 72.69 -198.81 -466.58 -170.59 766.48 -585.01 65.65 -179.56 -750.39 -274.37zm-481.55 1550.77l161.94 59.21 185.85 -95.66 80.31 192.97 161.95 59.22 -112.57 -348.35 -166.75 -60.98 -310.72 193.59zm-1023.75 -1900.87l-425.05 676.51 199.48 125.34 420.51 -669.29c74.48,-118.54 189.81,-144.85 298.23,-76.73 108.42,68.11 133.3,182.54 58.82,301.07l-420.51 669.28 200.94 126.25 425.05 -676.51c137.14,-218.29 59.38,-466.74 -151.68,-599.34 -211.04,-132.61 -468.66,-94.86 -605.79,123.42zm-1486.74 -750.67c-141.79,150.21 -150.92,378.72 31.58,550.99l342.63 323.45 834.4 -883.87 -172.56 -162.91 -314.07 332.69 -170.08 -160.54c-182.48,-172.28 -410.09,-150.02 -551.9,0.18zm172.57 162.91c67.98,-72.01 163.34,-73.54 241.55,0.29l161.38 152.35 -228.53 242.08 -161.38 -152.35c-78.22,-73.83 -80.99,-170.37 -13.02,-242.37zm-400.1 -1963.61l-777.24 1034.6 101.41 156.01 1260.11 -291.69 -134.9 -207.56 -220.36 55.69 -235.4 -362.16 141.29 -177.33 -134.9 -207.57zm-139.43 546.72l164.68 253.37 -454.48 112.14 289.79 -365.51zm-778.18 -2059.15c-103.26,30.11 -180.35,82.82 -221.19,162.31 -31.56,62.54 -41.47,138.34 -25.17,249.18l20.48 143.39c7.29,49.45 0.26,92.4 -14.35,121.55 -15.79,31.27 -44.06,50.19 -73.56,58.8 -80.31,23.41 -164.7,-16.01 -200.06,-137.29 -22.46,-77.03 -38.43,-168.4 10.54,-262.7l-184.64 -102.66c-67.55,128.17 -72.96,256 -26.13,416.62 73.58,252.4 264.37,363.93 472.51,303.24 98.33,-28.67 165.6,-78.52 205.09,-150.48 35.51,-67.26 45.15,-150.1 30.75,-254.37l-21.42 -146.69c-7.58,-56.47 -3.75,-86.04 10.86,-115.2 15.78,-31.27 46.85,-52.78 87.82,-64.72 93.43,-27.24 165.25,30.06 204.43,164.45 31.54,108.17 36.11,215.31 -16.14,310.57l190.51 104.51c82.92,-148.66 81.43,-294.04 29.81,-471.04 -71.19,-244.21 -253.98,-395.41 -480.16,-329.48zm-1017.49 -1449.83l18.72 246.84 808.33 183.54 -771.42 303.32 18.59 245.12 1181.69 -491.94 -13.42 -177.04 -1242.5 -309.84zm1301.63 -845.27l-250.26 -34.7 -34.94 251.97 250.27 34.7 34.93 -251.97zm299.11 -1232.1l-1144.16 -410.34 -80.11 223.36 1144.16 410.35 80.11 -223.37zm635.92 -1301.52l-182.27 -107.65 -280.43 474.78 -864.32 -510.51 -120.68 204.33 1046.58 618.16 401.12 -679.11zm479.59 -652.48l-957.27 -749.06 -146.24 186.88 957.27 749.07 146.24 -186.89zm642.87 -1183.04l-540.03 -611.78 -177.89 157.03 533.24 604.12c92.64,104.94 81.51,205.85 -5.53,282.67 -58.87,51.97 -106.23,55.07 -161.66,51.62l-14.93 220.41c127.71,7.95 218.14,-26.33 316.69,-113.31 168.94,-149.13 227.48,-389.81 50.11,-590.76zm1491.37 -467.89l-103.53 -184.66 -491.41 275.5 -144.43 -257.61 418.45 -234.59 -103.53 -184.66 -418.44 234.59 -139.42 -248.69 491.41 -275.5 -103.52 -184.65 -698.4 391.54 594.41 1060.25 698.4 -391.53zm1607.6 -1363.09c-46.47,-201.27 -231.63,-335.49 -476.15,-279.05l-459.11 105.97 273.36 1184.37 231.23 -53.36 -102.9 -445.81 227.89 -52.59c244.54,-56.44 352.14,-258.24 305.69,-459.52zm-231.24 53.36c22.27,96.49 -29.28,176.72 -134.09,200.91l-216.24 49.91 -74.87 -324.37 216.25 -49.91c104.8,-24.19 186.69,27 208.96,123.46zm1920.66 734.24l-264.21 -527.79c118.37,-41.05 223.96,-145.46 226.31,-316.15 2.8,-203.14 -141.68,-374.16 -389.21,-377.57l-476.27 -6.55 -16.72 1215.41 237.27 3.27 6.68 -484.8 170.7 2.35 230.61 488.06 274.83 3.79zm-275.18 -847.22c-1.29,93.89 -70.48,159.53 -174.62,158.09l-223.61 -3.08 4.41 -320.93 223.62 3.08c104.13,1.44 171.5,68.96 170.2,162.84zm1846.63 577.91c59.8,-201.29 104.7,-346.45 21.88,-499.29 -57.52,-106.13 -143.72,-181.6 -276.3,-220.98 -132.55,-39.38 -247.63,-23.7 -353.76,33.81 -152.84,82.83 -192.83,229.45 -252.63,430.74 -59.8,201.28 -106.36,345.96 -23.52,498.79 57.51,106.15 145.36,182.11 277.91,221.48 132.56,39.39 245.99,23.22 352.14,-34.3 152.82,-82.82 194.47,-228.97 254.27,-430.25zm-227.48 -67.57c-66.6,224.2 -95.75,274.31 -154.51,310.28 -43.91,27.93 -101.93,37.39 -164.12,18.91 -62.19,-18.47 -107.26,-58.57 -128.82,-105.94 -29.59,-62.22 -25.01,-119.63 41.6,-343.84 66.6,-224.19 94.11,-274.79 152.87,-310.77 43.91,-27.92 103.58,-36.91 165.76,-18.43 62.19,18.47 105.63,58.1 127.17,105.46 29.6,62.22 26.65,120.11 -39.95,344.33zm1450.28 1301.4l3.38 -590.22c124.13,16.97 265.55,-28.3 344.92,-179.44 94.46,-179.87 43.05,-397.76 -176.11,-512.87l-421.68 -221.45 -565.17 1076.14 210.09 110.33 225.43 -429.25 151.14 79.38 -15.34 539.58 243.33 127.8zm138.21 -879.99c-43.66,83.12 -135.07,110.32 -227.27,61.9l-198 -103.98 149.24 -284.16 197.99 103.99c92.2,48.42 121.69,139.12 78.04,222.25zm1370.78 1325.78c137.04,-159.11 237.48,-273.12 224.56,-446.47 -8.97,-120.38 -56.68,-224.56 -161.47,-314.8 -104.77,-90.25 -216.16,-123.1 -336.54,-114.14 -173.36,12.92 -269.91,130.27 -406.95,289.38 -137.04,159.11 -238.79,272.01 -225.86,445.36 8.96,120.38 57.97,225.67 162.75,315.91 104.79,90.25 214.89,121.99 335.25,113.02 173.36,-12.93 271.22,-129.17 408.26,-288.27zm-179.8 -154.86c-152.64,177.21 -199.75,210.99 -268.09,219.72 -51.49,7.47 -108.3,-7.67 -157.46,-50.01 -49.16,-42.34 -73.84,-97.39 -74.08,-149.43 -1.5,-68.88 26.2,-119.37 178.83,-296.58 152.64,-177.21 198.46,-212.1 266.8,-220.83 51.49,-7.46 109.6,8.78 158.76,51.11 49.16,42.33 72.55,96.28 72.79,148.31 1.5,68.89 -24.92,120.5 -177.54,297.71zm757.84 1892.69l345.25 -777.02 627.3 47.31 -167.59 -234.83 -679.69 -41.38 430.77 -307.42 -137.84 -193.17 -989.41 706.09 137.86 193.16 297.38 -212.21 244.08 18.74 -268.76 575.61 160.66 225.13zm569.09 1359.26l977.49 -847.95 -66.33 -173.88 -1293.28 20.12 88.23 231.28 227.14 -8.07 153.95 403.55 -175.42 143.66 88.22 231.29zm251.3 -505.15l-107.7 -282.34 467.9 -14.03 -360.19 296.37zm10.7 2395.23l697.63 -486.07 512.21 365.21 -21.81 -287.69 -560.11 -387.26 527.71 -40.01 -17.95 -236.62 -1212.03 91.9 17.93 236.63 364.3 -27.62 199.12 142.39 -527.91 353.35 20.91 275.79zm-202.32 1459.45l1271.87 -238.49 30.52 -183.57 -1126.53 -635.53 -40.6 244.17 200.15 107.69 -70.84 426.08 -223.96 35.44 -40.6 244.19zm471.94 -309.19l49.57 -298.09 410.99 224.1 -460.55 73.98zm-1008.32 1668.11l1103.97 508.64 99.3 -215.53 -676.02 -311.46 877.48 -125.78 88.58 -192.27 -1103.97 -508.64 -99.31 215.53 677.59 312.18 -879.04 125.06 -88.58 192.27zm-404.72 1651.73c142.2,114.64 263.9,230.27 455.94,209.66 112.82,-12.11 212.51,-78.66 291.81,-177.01l275.36 -341.58 -946.3 -762.87 -275.37 341.57c-79.29,98.36 -123.16,209.91 -111.06,322.72 20.62,192.05 167.41,292.85 309.63,407.5zm148.94 -184.76c-143.54,-115.72 -207.05,-175.66 -221.71,-244.51 -12.83,-62.97 1.52,-121.56 52.95,-185.37l112.5 -139.56 616.69 497.16 -112.5 139.55c-51.43,63.8 -105.65,90.25 -169.91,91.09 -70.4,0.27 -134.48,-42.64 -278.02,-158.36zm-1244.2 397.1l791.41 922.57 180.11 -154.51 -791.41 -922.56 -180.11 154.5zm-816.06 1066.29l444.73 684.2 198.94 -129.33 -439.13 -675.61c-76.29,-117.38 -50.52,-215.57 46.82,-278.82 65.84,-42.8 113.14,-38.95 167.47,-27.43l47.01 -215.85c-125.16,-26.55 -219.64,-5.86 -329.85,65.77 -188.94,122.8 -282.06,352.33 -135.99,577.06zm-1675.33 243.34l793.61 1022.1 177.21 -56.77 50.17 -1292.48 -235.73 75.54 -4.27 227.24 -411.33 131.8 -133.92 -182.97 -235.74 75.53zm490.76 278.36l287.78 -92.2 -11.41 467.97 -276.37 -375.77z"/>
  </g>
 </g>
</svg>
