<?xml version="1.0" encoding="UTF-8"?>
<!DOCTYPE svg PUBLIC "-//W3C//DTD SVG 1.1//EN" "http://www.w3.org/Graphics/SVG/1.1/DTD/svg11.dtd">
<!-- Creator: CorelDRAW 2018 (64-Bit) -->
<svg xmlns="http://www.w3.org/2000/svg" xml:space="preserve" width="118.841mm" height="56.2535mm" version="1.1" style="shape-rendering:geometricPrecision; text-rendering:geometricPrecision; image-rendering:optimizeQuality; fill-rule:evenodd; clip-rule:evenodd"
viewBox="0 0 6512.69 3082.79"
 xmlns:xlink="http://www.w3.org/1999/xlink">
 <defs>
  <style type="text/css">
   <![CDATA[
    .fil0 {fill:black}
   ]]>
  </style>
 </defs>
 <g id="Layer_x0020_1">
  <metadata id="CorelCorpID_0Corel-Layer"/>
  <path class="fil0" d="M992.44 2730.32c-4.41,-51.53 0.82,-102.47 -45.61,-129.88 -36.96,-21.81 -86.74,-30.52 -115.13,-21.16 -138.4,45.67 43.52,184.45 43.54,184.46 74.39,-8.38 59.3,-23.83 117.19,-33.42zm572.57 -783.72l-6.99 4.66 0 28.35c16.08,0 31.53,-9.33 39.98,-9.33l0 -2.34 2.33 0 2.32 -4.66 2.33 0 0 -2.32 11.63 -4.66 0 -0.61 202.74 -89.15c42.07,-17.99 75.8,-34.06 105.88,-52.47l0.88 0 0 -0.54 4.16 -2.59c3.38,-1.33 5.73,-3.85 9.79,-3.85l0 -2.34 6.98 -2.32 0 -2.34c4.6,-1.53 8.02,-4.81 11.11,-8.19 4.52,-3.36 9,-6.82 13.46,-10.4l1.02 -0.06 0 -0.76 1.91 -1.56 2.75 0 0 -2.26 2.42 -2.03c6.17,-4.61 20.99,-14.36 23.18,-14.36l0 -2.34c5.26,0 6.12,-9.33 18.62,-9.33l0 -2.32 2.32 0 2.32 -11.66 4.65 0 2.32 -4.66 2.34 0 0 -2.32 2.32 0 0 -2.34 2.32 0c2.25,-4.54 9.31,-10.42 9.31,-13.99l2.32 0 0 -2.32 2.32 0c0,-5.37 6.99,-5.88 6.99,-11.66l2.32 0 0 -2.32 2.33 0c0,-11.35 14.22,-18.88 20.95,-25.65l2.32 0 0 -2.32 4.66 0 0 -4.66 2.32 0 0 -4.66 2.32 0c4.79,-4.82 9.31,-7.06 9.31,-13.99l2.33 0 0 -2.34 2.32 0 2.32 -4.66 2.32 0 0 -2.33c5.47,-1.82 9.16,-5.14 12.81,-8.8l44.44 -21.51 0.92 0 0 -0.45 7.37 -3.56c1.32,-0.37 2.7,-0.65 4.27,-0.65l0 -1.42 1.87 -0.9 2.79 0 0 -1.35 2.35 -1.15c4.02,-0.51 6.8,-2.16 11.61,-2.16l0 -2.34 6.97 0 0 -2.32 6.99 0 2.33 -2.34 2.32 0 0 -2.32 6.99 0 0 -2.34 6.99 0 0 -2.32 6.97 0 0 -2.34 6.99 0 0 -2.32 6.98 0 0 -10.71 33.64 -16.29c14.22,-3 33.85,-10.33 43.16,-14.97l0 -2.33c12.94,0 24.62,-16.31 41.88,-16.31l0 -2.34 2.32 0 0 -2.32c8.26,0 11.79,-7 20.95,-7l0 -2.33 6.99 0 0 -2.33c5.43,0 12.28,-10.08 19.7,-15.42l6.24 -3.02c0.65,-0.14 1.32,-0.21 1.98,-0.21l0 -0.75 34.99 -16.93c29.38,-12.33 180.18,-79.34 186.08,-87.22l6.99 0 2.32 -2.34 4.65 0 0 -2.32 2.34 0 0 -2.34c9.74,0 12.4,-9.32 23.27,-9.32l0 -2.32 6.98 0 0 -2.34 6.99 0 0 -2.32c4.11,0 7.09,-2.34 11.63,-2.34l0 -2.32 4.65 0 0 -2.34 4.66 0 0 -2.32 4.65 0 0 -2.34 6.97 0 0 -2.32 2.34 0 0 -2.34c5.47,0 6.93,-4.66 11.63,-4.66l0 -2.32 2.32 0 0 -2.33 11.63 -2.33 0 -2.33 6.98 0 0 -2.32 6.99 0 0 -2.34 6.99 0 0 -2.32 6.97 0 0 -2.34 4.66 0 0 -2.32 4.65 0 0 -2.34 4.65 0 0 -2.32 4.66 0 0 -2.34 2.32 0 0 -2.32 6.97 0 0 -2.34 11.63 0 0 -2.32 13.97 -7 0 -2.32 2.33 0 0 -2.34 6.97 0 0 -2.32 4.66 0 0 -2.34 2.32 0 0 -2.32 4.65 0 0 -2.34 2.32 0 0 -2.32 4.66 0 0 -2.34 2.32 0 0 -2.32 2.33 0 2.32 -2.34 2.33 0 0 -2.32 2.33 0 0 -2.33 4.65 0 0 -2.33 2.32 0 0 -2.33 2.34 0 4.65 -4.66 2.32 0 0 -2.32 4.66 0 0 -2.34c5.02,0 7.86,-7.6 12.56,-10.52l1.83 -0.85c0.61,-0.19 1.22,-0.28 1.9,-0.28l0 -0.61 3.75 -1.73 0.89 0 0 -0.41 9.88 -4.53 14.79 -6.71 0.94 0 0 -0.42 4.22 -1.91 0.44 0 0 -0.2 4.73 -2.13 2.24 0 0 -1.01 2.98 -1.33 4.01 0 0 -1.8 1.16 -0.52 5.83 0 0 -2.34 6.97 0 0 -2.32 4.66 0 2.32 -2.34 6.98 0 0 -2.32 6.99 0 0 -2.34 6.97 0 0 -2.32 6.99 0 0 -2.34 6.99 0 0 -2.32 2.32 0 0 -2.33 4.65 0 0 -2.33 6.99 0 0 -2.33 2.32 0 0 -2.32 11.63 0 0 -2.34 6.99 0 0 -2.32 6.97 0 0 -2.34 6.99 0 0 -2.32c4.11,0 7.09,-2.34 11.64,-2.34l0 -2.32 4.65 0 2.32 -2.34 4.66 0 0 -2.32 4.65 0 0 -2.34 4.65 0 0 -2.32 2.33 0 0 -2.34 4.65 0 0 -2.32 9.31 -2.33 0 -2.33 4.65 0 0 -2.33 2.32 0 0 -2.32 4.66 0 2.32 -2.34 4.65 0 0 -2.32 2.34 0 0 -2.34 6.98 0 0 -2.32 2.32 0 0 -2.34 6.99 0 0 -2.32 6.97 0 0 -2.34 2.34 0 1.9 -3.8 2.16 -0.87 2.92 0 0 -1.16 2.9 -1.16 1.76 0 0 -0.71 4.1 -1.63 2.88 0 0 -1.15c10.89,-4.32 21.82,-8.61 32.74,-12.84l11.48 0 0 -2.32 6.97 0 0 -2.34 6.99 0 0 -2.32 16.29 0 0 -2.34 6.99 0 2.32 -4.66 6.99 0 0 -2.32 6.97 0 0 -2.34c351.8,0 579.06,-382.03 1327.43,-286.26 76.95,9.85 228.41,44.61 300.35,33.19 28.38,-4.5 56.68,-7.55 84.9,-9.37 17.76,-0.17 37.87,-0.48 60.57,-0.9l0 -1.19c11.77,-0.07 23.5,0.07 35.24,0.35l202.68 19.24c79.41,11.92 158.2,27.48 236.39,41.39 118.4,21.04 224.73,70.45 281.94,46.95l2.38 0.51 0 -1.53 2.08 -0.99c-0.62,-0.96 -1.33,-1.92 -2.08,-2.88l0 -22.95 -59.23 -13.69c-66.67,-27.47 -165.76,-48 -207.27,-56.41l-480.26 -55.15c-35.93,-2.51 -61.5,1.39 -86.27,6.29 -1.86,-1.8 -3.06,-2.38 -7.06,-2.38l0 -2.34 -67.49 0c-14.65,-14.65 -183.04,-5.2 -224.98,-4.69l-3.07 -0.41 0 -6.45c-20.36,0 -126.22,-14.56 -130.31,-18.65 -431.76,0 -601.61,57.93 -999.24,197.6l-15.79 2.9 0 2.64 -107.76 37.83c-41.82,17.02 -87.05,28.39 -131.7,45.79l-75.65 34.88 -3.71 0 0 1.71 -1.34 0.61 -5.65 0 0 2.33 -6.98 0 0 2.33 -18.62 0 0 2.33c-6,0 -9.81,2.32 -16.29,2.32l0 2.34 -2.32 0 0 2.32 -4.66 0 0 2.34 -2.32 0 0 2.32 -6.97 0 0 2.34 -4.66 0 0 2.32 -4.65 0 0 2.34 -4.66 2.32 0 2.34 -6.98 0 0 2.32 -6.99 0 0 2.33 -2.32 0 0 2.33 -6.97 0 0 2.33 -2.34 0 0 2.32 -4.65 0 -2.32 2.34 -4.66 0 0 2.32 -2.32 0 0 2.34 -4.65 0 0 2.32c-3.73,0 -4.94,2.34 -9.31,2.34l0 2.32 -4.65 0 0 2.34 -2.34 0 0 2.32 -4.65 0 0 2.34 -4.65 0 0 2.32 -4.66 0 -2.32 2.33 -4.65 0 0 2.33c-4.55,0 -7.52,2.33 -11.63,2.33l0 2.32 -6.99 0 0 2.34 -6.97 0 0 2.32 -6.99 0 0 2.34 -11.64 0 0 2.32 -2.32 0 0 2.34 -6.99 0 0 2.32 -4.65 0 0 2.34 -2.32 0 0 2.32 -6.99 0 0 2.34 -6.99 0 0 2.32 -6.98 0 0 2.34 -6.99 0 0 2.32 -6.97 0 -2.32 2.33 -4.66 0 0 2.33 -6.98 0 0 2.33 -6.99 0 0 2.32 -6.99 0 0 2.34 -6.97 0 0 2.32 -4.66 0 0 2.34 -9.29 0 0 2.32 -4.66 0 0 2.34 -4.65 0 0 2.32 -6.99 2.34 0 2.32 -4.65 0 0 2.34c-6.19,0 -9.04,11.65 -16.28,11.65l0 2.34 -4.66 0 0 2.32c-4.44,0 -4.64,4.66 -9.31,4.66l0 2.34 -2.33 0 0 2.32 -4.65 0 0 2.34 -2.32 0 0 2.32 -2.34 0 -2.32 2.34 -2.32 0 0 2.32 -2.32 0 0 2.34 -4.66 0 0 2.32 -2.32 0 0 2.33 -4.65 0 0 2.33 -2.33 0 0 1.36 -2.11 0.98 -2.55 0 0 1.18 -2.5 1.15 -4.48 0 0 2.07 -0.59 0.27 -1.73 0 0 0.79 -3.32 1.53 -1.35 0 -0.39 0.81 -18.48 8.52 -2.07 0 0 0.95 -3.01 1.39 -3.97 0 0 1.82 -1.07 0.5 -1.25 0 0 0.58 -3.83 1.76 -0.84 0 0 0.38 -4.19 1.95 -0.45 0 0 0.21 -4.62 2.12 -0.03 0 0 0.02 -10.09 4.65 -1.55 0 0 0.71 -3.5 1.61 -3.49 0 0 1.62 -1.57 0.72 -5.41 0 0 2.32 -6.97 0 0 2.34c-4.89,0 -6.82,2.32 -11.63,2.32l0 2.34 -2.32 0 0 2.32 -11.64 4.66 0 1.19 -7.52 3.47 -1.79 0 0 0.82 -3.29 1.52 -1.36 0 0 0.62 -3.67 1.7 -0.99 0 0 0.45 -4.08 1.89 -0.56 0 0 0.26 -8.77 4.06c-0.91,0.21 -1.86,0.35 -2.87,0.35l0 0.96 -2.96 1.36 -4.03 0 0 1.86 -1.03 0.48 -5.94 0 0 2.32c-10.67,0 -13,9.33 -23.27,9.33l0 1.81 -1.13 0.53 -1.21 0 0 0.55 -3.84 1.77 -0.81 0 -0.68 0.68 -3.58 1.66 -5.05 0 -2.66 3.56 -7.44 3.43 -1.53 0 0 0.71 -3.55 1.63 -3.43 0 0 1.57 -1.62 0.75 -3.05 0 0 1.4 -2.03 0.94 -2.63 0 0 1.21 -2.42 1.12 -6.89 0 0 2.34 -6.97 0 0 4.06 -1.32 0.61 -3.34 0 0 1.55 -1.7 0.78 -2.95 0 0 1.36 -4.62 2.13 -4.69 1.18 0 0.99 -4.58 2.11 -9.38 1.56 0 2.33 -6.99 0 0 2.33 -2.32 0 -2.32 2.33 -6.99 0 0 2.33 -6.97 0 0 2.33 -6.99 0 0 2.32c-4.11,0 -7.09,2.34 -11.63,2.34l0 2.32c-16.31,0 -32.95,16.33 -48.87,16.33l0 2.32 -11.63 2.33 0 2.33 -2.32 0 0 2.33 -6.99 0 0 2.32 -4.65 0 0 2.34 -2.32 0 0 2.32c-9.68,0 -15.05,16.33 -23.27,16.33l0 1.66 -1.86 0.87c-2,0.39 -4,1.4 -5.95,2.73l-145.33 67 -0.45 0.02 0 0.2 -136.12 62.76 -1.18 0 0 0.54 -33.22 15.32c-19.7,12.43 -33.96,37.34 -45.79,52.31 -66.09,83.51 -146.86,132.49 -222.42,167.01 -1.1,0.19 -2.24,0.28 -3.43,0.28l0 1.26 -2.66 1.19c-15.38,1.36 -28.29,13.87 -46.2,13.87l0 2.33c-19.49,0 -39.98,16.55 -56.43,25.2l-12.43 4.81c-1.12,0.2 -2.22,0.31 -3.28,0.31l0 0.96c-46.44,18.18 -83.53,34.93 -103.07,58.47 -2.76,2.65 -5.17,5.85 -10.95,5.85l0 2.32 -2.32 0 -2.32 4.66 -2.34 0 0 2.33 -2.32 0 -2.32 4.66zm534.55 -428.52l3.43 0 0 -7.78 0.82 -1.55 13.14 0 0 -17.22c1.98,-2.13 4.2,-4.42 6.73,-6.92 -10.93,-21.12 -59.61,-8.51 -69.1,-5.36l0.95 49.28c35.93,-6.85 41.6,-6.72 44.04,-10.46zm199.17 -119.72l13.71 -1.52 0 -4.66 4.65 0 0 -42.33 -33 0 0 5.34c-32,-7.9 -21.06,2.12 -25.9,40.21 0.2,0.1 -1.55,31.42 40.55,2.96zm135.97 -116.27c6.93,2.39 12.43,4.42 16.94,6.04l0 1.47c40.08,0 84.19,-13.91 84.19,-56.33 -102.29,0 -36.74,4.66 -101.13,48.81zm287.3 -95.08c0,-254.33 -104.57,0 0,0zm171.78 -125.9c17.84,0 26.5,1.23 42.32,-9.33l0 -4.66 4.65 0 0 -4.66 4.65 0 0 -4.66 4.66 0 0 -4.66 4.65 0 0 -4.66 4.65 0 0 -4.66 4.66 0 0 -4.66 4.65 0 0 -37.67 -46.95 0 0 9.33 -13.96 0 0 9.33 -9.31 0 0 4.66 -4.66 0 0 9.33 -18.61 0 0 47 18.61 0zm237.37 -88.97l-4.65 0 0 33.01 13.96 0 0 9.32 28.35 0 3.1 -9.32 15.5 0 0 -18.65 4.66 0 0 -4.66 4.65 0 0 -4.66 4.66 0 0 -4.66 4.65 0 0 -33.01 -46.97 0 0 5.77c-9.51,1.94 -14.73,8.01 -17.94,17.55l-9.98 0 0 9.32zm223.41 -111.91l0 3.75c-1.64,3.92 -3.69,9.1 -7.12,16.1 0.33,0.12 2.36,4.9 7.12,8.41l0 14.07 28.34 0 0 -4.66 23.27 0c0,-8.12 0.85,-11.03 4.65,-18.65l23.27 0 0 -47 -4.65 0 0 -9.32c-9.03,-9.03 -42.52,-4.66 -56.28,-4.66l0 4.66 -13.96 4.66 0 4.66 -4.65 0 0 27.98zm363.45 -107.25l-28.35 0 0 47 28.35 0 0 -9.33 4.65 0 0 -28.35 -4.65 0 0 -9.32zm213.67 -55.96l-13.97 0 0 28.35 11.69 0c11.78,6.17 11.43,11.8 16.24,11.55l0 2.43 46.95 0 0 -47 -60.92 0 0 4.66zm209.86 -41.96l-42.31 0 0 9.12c-17.81,1.23 -5.85,6.46 -19.26,24.15 26.46,24.21 -47.24,19.26 40.83,22.29 49.88,1.72 45.85,-1.89 40.58,-8.58l3.43 0 0 -46.99 -23.27 0zm874.41 256.44c-13.14,-0.02 -23.5,0.14 -37.08,4.67l0 28.34c9.67,0 19.38,-0.45 29.08,-1.09 6.14,0.12 14.09,0.19 24.35,0.26 11.88,0.07 19.58,-1.4 24.59,-3.49 5.15,-0.2 10.31,-0.34 15.48,-0.34l0 -4.66 4.65 0 0 -47 -46.95 0 0 17.63c-4.2,1.26 -8.89,3.1 -14.12,5.67zm-2689.55 862.64l-27.07 0c-36.49,-9.14 -104.21,-12.29 -86.18,18.78 1.63,2.81 3.57,5.2 5.78,7.26l0 16.3 65.58 0 0 -4.66 18.63 0 0 -3.41c0.41,-0.34 0.76,-0.75 1.07,-1.24l8.24 0 0 -4.66 18.61 0 0 -28.35 -4.65 0zm283.9 -153.87l-64.64 0c-13.44,-1.52 -25.77,-1.78 -36.82,0l-47.89 0 0 36.41c-1.66,3.44 -3.17,7.16 -4.56,11.18 3.83,1.36 7.54,2.47 11.21,3.38l2.66 5.35c11.46,0 22.61,-1.56 33.35,-2.88l0.72 -0.07 0.16 -0.03c1.97,-0.18 3.97,-0.42 6,-0.69 5.44,-0.58 10.8,-0.99 16.05,-0.99l0 -1.82c4.05,-0.83 8.26,-1.78 12.65,-2.84l52.51 0 0 -18.65 18.61 0 0 -28.34zm237.37 -97.92l-84.19 0 0 14.8c-1.9,0.64 -3.73,1.3 -5.44,2.02 1.61,3.49 3.42,6.48 5.44,9.06l0 2.47 2.12 0c17.56,18.81 47.07,10.02 66.83,0l15.25 0 0 -28.34zm251.33 -144.55l-4.65 0 0 -4.66 -79.56 0 0 4.66 -4.65 0 0 4.66 -9.31 0 0 7.82 -0.74 0.06c0.09,2.75 0.36,5.31 0.74,7.72l0 31.39 28.31 0c19.68,6.81 47.52,7.29 77.41,11.26 -0.81,-9.17 -1.74,-16.95 -2.9,-23.53l0 -1.72 4.66 0 0 -28.35 -9.31 -9.32zm209.44 -130.57l-28.35 0 0 28.35 0.21 0.05c-6.69,1.8 -12.14,3.42 -15.79,4.45 46.18,18.84 68.96,24.18 95.51,9.49l36.85 0 0 -28.35 -69.82 0 0 -9.33 -18.62 -4.66zm349.06 -88.59l-28.34 0 0 25.85c-2.37,2.14 -5.06,4.52 -8.15,7.16 4.08,3.47 -6.92,14.29 30.87,13.49l5.21 -0.15 0 0.65 28.35 0 0 -37.67c-13.37,0 -15.66,-1.13 -27.94,-9.33zm149.55 -130.89c-9.44,-0.32 -18.68,-0.41 -26.63,4.89l0 28.34c10.67,0 20.38,-1.25 30.16,-2.47l47.64 15.76c4.82,7.1 3.66,14.02 3.66,24.01l35.32 0 0 -2.34 2.33 0 0 -2.32 2.32 0 0 -2.34 2.33 0 0 -9.32 2.32 0 0 -51.66c-16.13,0 -32.22,-0.67 -48.37,-1.29l-0.41 -0.09c-24.29,-5.27 -40.22,-4.5 -50.67,-1.18zm222.37 -41.74c0,11.73 -1.39,24.16 2.32,35.33l28.35 0 0 -20.97 7.26 0c18.4,4.72 37.48,4.14 55.88,0l36.92 0 0 -42.33 -13.26 0c-5.39,-4.06 -14.46,-3.22 -33.62,0l-39.64 0 0 2.32 -4.65 0 0 2.34 -2.32 0 -2.32 4.66 -2.34 0 0 2.33 -2.32 0 0 2.33 -30.25 0 0 13.99zm372.75 -37.3c-3.06,-3.07 -4.65,-7.23 -4.65,-11.66l-2.32 0 0 -4.66c-8.05,-8.05 -27.76,-4.66 -39.56,-4.66l0 -2.32 -56.28 0 0 49.32 2.32 0c2.36,2.35 4.66,3.6 4.66,7 12.23,0 26.77,2.32 37.23,2.32l0 2.34 9.31 2.32 0 2.34 51.62 0 0 -11.66 11.64 0 0 -28.35c-4.98,0 -10.39,1.25 -13.97,-2.32zm132.23 -24.53l0 38.89 28.34 0 0 -2.34 0.31 0c3.94,1.64 8.53,3.12 13.96,4.41 33.85,8.05 33.94,1.42 56.8,-4.14 -2.32,-9.8 -5.03,-17.63 -8.25,-23.85l0 -14.09 -4.65 0 0 -6.99 -23.49 0c-7.54,-1.22 -16.24,-0.95 -26.39,0l-22.69 0 0 2.62 -15.69 1.86c0.64,1.21 1.21,2.41 1.73,3.63zm291.35 -11.8l-38.82 0 0 10.49 -11.63 0c0,63.55 18.62,47 87.69,47l0 -3.73 2.61 0.04 -0.79 -2.14 6.34 0 0 -33.01c-1.02,0 -17.14,-16.33 -32.59,-16.33l0 -1.16c-2.25,-2.25 -10.12,-1.16 -12.8,-1.16zm1322.23 1559.38l-545.46 286.25 0 1.63c-4.69,-0.23 -9.38,-0.75 -14.14,-1.5l-895.82 -426.02c-13.62,-6.59 -27.31,-13.11 -41.13,-19.56l-164.72 -78.33 -1019.12 -485.78c-44.02,-20.96 -192.84,-105.09 -295.22,-139.28l-59.87 -28.47 0 9.3 -9.29 0 0 4.65c-10.05,0.07 -18.14,1.96 -23.74,6.06 -6.82,11.25 -32.43,-6.85 21.54,32.3 62.32,45.19 637.62,313.9 742.5,361.96 283.66,129.97 518.84,241.66 795.12,380.83 253.5,127.68 547.38,275.59 801.29,386.08 40.66,17.68 102.75,56.34 153.29,66.39l0 9.39 14.14 -7.35c11.28,0.98 21.76,0.13 30.98,-3.23 65.29,-23.68 144.85,-77.5 209.93,-113.68 29.43,-16.35 72.29,-42.44 118.86,-70.05l215.19 -111.84c11.08,-3.67 20.8,-6 28.74,-6.65l37.29 80.9c-61.99,57.68 -133.6,89.33 -202.27,125.72 -83,43.98 -342.08,204.53 -414.28,233.23 -58.39,23.2 -362.67,-149.65 -427.45,-183.2l-430.33 -216.29c-252.64,-133.54 -508.63,-243.94 -758.23,-371.25l-635.75 -310.17c-211.53,-92.46 -330.79,-205.39 -585.84,-194.51 38.75,24.29 12.45,22.05 78.79,54.42 58.44,28.5 62.06,10.88 52.35,71.13 -62.52,25.47 -328.4,14.47 -407.13,6.32 21.34,42.02 -5.32,14.13 42.33,42.84 23.36,14.08 17.68,6.96 41.76,17.43 28.62,12.43 49.31,25.34 67.81,53.38 -173.51,57.55 -233.06,20.48 -390.16,43.21 3.77,20.28 47.33,34.27 79.71,50.23 34.19,16.87 71.32,27.68 93.97,49.27 -108.82,81.76 -251.24,21.95 -385.48,51.26 142.6,107.7 207.86,43.63 215.45,129.46 -189.69,79.08 -402.44,38 -574.91,-34.54 -43.71,-18.38 -23.27,-21.79 -83.32,-16.41 -20.42,36.95 -16.9,50.68 -16.07,98.88 40.49,37.41 118.46,76.97 168.53,111.27 23.94,16.39 83.27,39.19 96.93,68.49 7.14,71.35 9.05,124.72 -24.34,177.26 -97.97,154.15 -201.64,21.75 -301.24,55.49 -166.13,56.28 -263.61,3.9 -399.26,-81.75 -60.22,-38.03 33.62,14.85 -15.02,-9.35 -11.67,-5.8 6.7,-9.07 -37.4,-11.18 -32.02,51.25 8.5,129.03 -38.84,201.3 -101.26,154.54 -271.13,-9.58 -340.9,-108.07 -30.91,-43.61 -37.69,-68.23 -84.88,-40.65l-190.23 133.56c-124.14,101.55 -152.77,217.04 -290.99,274.41 -66.73,27.7 -265.95,-42.03 -62.63,-234.01 55.2,-52.13 -45.84,-136.25 -7.56,-213.22 36.82,-74.02 303.84,-142.7 348.67,-215.69 -15.74,-63.22 3.41,3.33 -21.87,-42.93 -75.08,-137.45 59.77,-191.45 111.37,-246.14 -46.94,-31.79 -73.59,-43.24 -99.65,-88.88 -87.63,-153.4 26.81,-347.86 101.62,-354.78 63.19,15.22 120.5,64.58 216.92,54.93 75.05,-7.5 98.62,-77.54 173.42,-60.96l17.94 8.2c47.18,50.07 -33.94,218.68 -26.02,298.64 3.49,35.32 -2.88,18.03 13.65,38.56 60.69,-118.72 43.42,-360.95 216.89,-374.87 155.7,-12.5 249.1,238.16 341.29,235.23 34.2,-108.7 -15.66,-246.55 86.33,-380.91 32.08,-42.25 73.66,-131.78 129,-123.67 15.4,42.94 7.03,92.24 10.42,146.69 46.35,-9.61 93.6,-116.83 120.44,-159.28 24.04,-37.99 26.56,-55.81 72.94,-75.34l18.5 58.52c35.74,-21.6 67.05,-102.84 67.04,-153.46 -65.49,2.14 -353.6,160.46 -420.6,195.94l-410.65 201.37c-114.86,62.87 -116.8,32.75 -220.09,-26.56 -35.08,-20.14 -69.76,-37.28 -101.34,-54.72l-199.03 -112.97c-30.63,-17.6 -74.97,-38.92 -100.92,-54.99 -32.5,-20.14 -68.19,-43.34 -97.37,-59.33 -37.87,-20.75 -47.53,-22.55 -87.38,-54.72l4.85 -74.63c21.79,-9.89 -23.86,-15.15 37.34,-4.35 1.85,0.32 3.81,0.78 5.86,1.33l123.41 68.94c21.69,14.2 41,26.92 53.94,34.03 71.79,39.48 142.78,78.96 215.56,120.48 87.3,49.82 149.43,106.59 220.29,119.05l37.56 20.98 0 -18.75c2.94,-0.18 5.9,-0.43 8.89,-0.76l0 10.18 875.42 -391.68 0 -5.56c4.45,-1.01 7.99,-1.52 10.35,-1.4 89.16,4.38 154.04,97.41 242.61,56.86l3.01 1.39 0 -2.81 0.24 -0.12 -0.24 -0.35 0 -25.07 -204.78 -107.25 -28.34 0 0 12.5c-29.93,-2.78 -61.81,3.51 -101.69,24.49l-301.02 141.84 -486.24 212.85 0 8.18c-4.65,0.85 -9.17,1.49 -13.55,1.9l0 -0.75 -609.45 -327.19c5.6,-9.47 -0.13,-3.4 12.64,-16.9 34.31,-36.22 399.99,-178.96 448.12,-199.39 67.87,-28.78 82.54,-26.89 146.04,-73.87 -12.13,-6.18 -32.05,-18.68 -43.79,-25.26l-593.22 -305.84c-49.69,-30.92 -43.58,-41.32 -13.65,-87.64 48.9,-11.03 78.94,22.04 117.31,42.96 159.05,86.75 446.2,216.72 580.19,305.79 84.99,56.51 67.96,61.48 158.28,13.93 -3.87,-3.84 -9.37,-8.35 -16.29,-13.38l0 -17.32 -788.27 -422.72c34.37,-32.68 103.36,-63.3 146.69,-84.41l264.44 -131.23c57.77,-27.5 120.11,-83.06 182.43,-86.5 61.92,-3.43 129.07,47.22 179.6,76.63l437.02 223.33c194.4,94.07 171.7,145.64 351.53,62.63 15.3,-7.06 38.85,-19.02 50.47,-24.34l496.28 -208.82c15.82,-7.18 31.24,-12.83 49.88,-21.15 76.05,-33.97 92.86,-45.24 169.12,-0.64l302.76 174.91c29.69,16.12 53.22,29.58 85.15,46.89 46.01,24.96 54.38,13.39 67.63,59.14l-360.77 193.12 -317.25 152.47 0 28.35 11.77 -5.66c-4.13,9.31 -6.07,19.98 -5.15,32.38 0.82,0.07 1.77,0.07 2.69,0.07l0 19.83 131.52 -66.27c65.49,-30.13 146.31,-71.64 227.41,-114.58l353.58 -178.17 0 -7.38c40.73,25.81 55,40.55 37.95,92.66 -70.54,106.89 -172.88,-41.04 -140.85,277.41 31.8,-1.57 6.58,18.04 35.29,-21.7 15.59,-21.57 11.91,-24.85 23.9,-48.37 30.67,-60.21 71.5,-104.65 117.11,-147.48 136.74,-128.43 59.11,73.83 61.96,135.35 45.11,-8.98 136.77,-162.75 193.27,-204.05 23.06,-16.85 71.91,-42.45 91.57,-19.49 27.7,32.34 -44.33,103.09 -14.42,157.25 38.59,-40.92 72.79,-100.07 117.87,-134.37 74.93,-57 102.95,-45.43 184.04,-71.26 5.78,80.72 -42.93,57.53 -8.81,104.39 52.07,-56.93 191.16,-168.12 279.57,-174.99 10.68,67.21 -21.72,116.5 -46.73,168.77 64.74,-15.86 121.53,-76.51 180.34,-108.27 56.49,-30.52 144.56,-70.18 215.47,-58.01 -2.17,61.38 -52.36,82.25 -101.83,129.41l36.05 -9.75c74.12,-21.65 181.77,-77.27 260.44,-66.67 61.44,8.28 28.9,6.72 59.09,44.6l12.25 13.78c82.84,-25.76 193.27,-99.2 298.78,-53.44 11.34,56.88 -3.06,48.88 -14.03,68.91 -1.08,1.98 -4.71,9.94 -5.55,8.06 -0.85,-1.87 -4.48,5 -5.72,8.04 78.37,-17.04 47.55,-32.68 145.72,-36.71 109.53,-4.49 204.93,-20.12 169.65,49.48 -12.96,25.55 -51.06,39.6 -78.23,58.01 69.84,43.47 187.99,-124.76 332.98,0 -16.85,36.67 -54.3,65.88 -79.39,95.13 125.52,-22.84 78.08,-59.59 255.57,-57.06 43.42,0.61 109.78,-3.24 149.19,7.01 209.19,54.41 42.77,115.08 -31.04,169.01 -40.99,29.96 -22.39,-5.83 -34.76,36.54 63.07,0.64 131.41,-5.57 193.43,-2.61 61.07,2.9 92.34,32.49 128.82,53.74l215.03 135.69c1.22,-2.3 5.23,3.7 7.51,5.94 -41.6,27.2 -52.48,13.93 -108.85,26.91 -197.54,45.47 -229.14,-11.69 -370.7,-11.12 50.2,62.05 25.61,-7.61 57.94,79.71 -126.31,39 -395.3,-48.66 -510.18,-116.2 -28.45,-16.73 -35.41,-34.54 -52.8,-54.36 -27.58,-31.39 -33.83,-27.41 -67.65,-49.02 2.01,59.26 -5.02,35.6 40.09,76.67 51.89,47.24 136.8,86.09 148.52,144.42 -139.68,21.94 -260.34,-36.03 -376.43,-78.08 -60.11,41.43 -94.33,45.09 -169.31,33.26 -37.22,-5.88 -70.35,-3.87 -106.07,-8.44 -49.02,-6.3 -34.84,-15.17 -84.55,-18.94 -0.72,1.87 0.17,5.12 0.08,6.01 -2.92,28.56 4.9,28.49 -24.81,41.53 -53.53,23.48 -230.47,3.8 -287.2,-3.52 -29.24,23.09 -35.7,50.12 -74.42,59.71 -122.19,30.32 -245.99,-13.78 -276.57,-18.01 -70.1,-9.72 -33.35,2.07 -41.59,9.31 29.82,7.91 53.61,7.5 74.93,23.96 -2.54,2.21 -6.05,4.85 -7.94,6.24 -96.43,71.08 -231.02,41.68 -345.11,46.16 28.16,50.81 36.87,-18.75 51.83,75 -61.26,18.27 -165.71,21.03 -214.19,35.79 26.27,36.48 121.53,65.41 155.74,79.97 285.33,121.43 573.2,266.97 859.31,387.32 2.68,1.13 5.91,2.31 8.59,3.47l82.12 41.41c2.67,1.26 5.81,2.65 8.52,3.89l347.45 155.83c2.51,1.05 5.77,2.27 8.26,3.33 22.76,9.71 9.01,4.04 32.07,14.67l224.91 102.44c17.42,8.17 19.65,10.47 38.03,18.2 122,51.28 562.55,242.17 628.4,284.57 -3.18,7.77 -7.66,15.01 -13.13,21.82zm-4622.11 -30.83l-9.37 0c-102.85,-32.83 -75.29,-22.62 -83.58,9.9 -11.17,43.88 34.32,64.64 59.02,84.4 22.04,17.65 46.5,42.73 72.82,58.65 51.65,31.19 163.56,31.77 212.14,-0.96 -0.37,-45.38 -64.09,-81.7 -130.02,-108.17l0 -6.52 -4.65 0 0 -4.66 -24.82 0c-32.35,-11.67 -63,-20.86 -84.48,-27.48 -2.88,-2.22 -5.37,-4.04 -7.06,-5.16zm213.83 -419.66l-0.15 0 0 0.28c-5.07,9.25 -9.04,16.73 -15.31,28.86l15.31 0.01 0 3.86 51.62 0 0 -3.8 17.63 0.01c0.37,1.11 0.56,2.36 0.56,3.79l46.97 0 0 -3.73 5.09 0 -0.52 -0.94 4.75 0 0 -28.34 -18.62 -4.66 0 -4.66c-4.11,0 -8.19,-0.12 -12.26,-0.28 -18.16,-17.44 -40.3,-17.07 -89.38,-0.68l-5.68 10.29zm-845.78 189.92c-121.59,19.61 -131.17,49.54 -130.94,108.27 68.31,12.19 393.3,34.44 374.25,-100.91 -58.02,-19.27 -181.2,-17.38 -243.31,-7.35zm-270.1 -331.73c-0.95,-0.58 -36.49,-56.36 -87.81,-3.19 -15.56,16.14 -23.04,51.23 -11.04,79.74 36.32,86.31 169.34,168.9 220.46,105.97 100.31,-123.46 -121.54,-182.49 -121.6,-182.52zm648.94 79.16c-16.19,-30.33 -38.11,-71.16 -61.27,-102.1 -59.81,-79.85 -49.52,-71.53 -89.97,-73.02 -54.62,143.88 -15.16,109.36 24.49,244.97 89.5,0.34 91.15,-14.73 126.75,-69.86zm834.51 -59.93c-38.33,-32.17 -56.81,-23.44 -107.12,-9.17 12.94,32.37 82.87,84.59 107.12,9.17zm1290.98 -419.42c-42.18,-18.17 -84.03,-35.96 -132.76,-27.54 16.17,43.7 59.28,53.37 99.37,48.32 54.96,-6.92 27.44,-12.57 33.39,-20.78zm231.71 -106.38c6.56,-22.1 3.49,-9.44 12.3,-24.06 1.22,-2.03 8.8,-10.76 11.49,-16.61l-98.53 6.89 74.73 33.79zm-1079.04 -396c-44.86,4.7 -38.22,6.1 -52.81,49.49 55.73,-1.89 45.22,10.49 52.81,-49.49zm190.26 -71.97c50.07,2.21 28.33,17.89 62.64,-46.76 8.65,-16.3 23.05,-43.24 27.06,-58.36 -54.54,1.33 -23.88,-2.01 -56.24,16.54l-38.08 22.19c-1.28,-2.41 -5.24,3.57 -8.97,5.77l13.59 60.62zm198.75 -67.57c40.91,-10.24 46.94,-25.61 74.93,-67.19l58.41 -94.87c-18.95,2.65 -17.12,-0.45 -38.22,8.15l-96.19 40.72 1.08 113.2z"/>
 </g>
</svg>
